<?xml version="1.0" encoding="UTF-8"?>
<svg version="1.1" xmlns="http://www.w3.org/2000/svg" width="1024" height="1024">
<path d="M0 0 C337.92 0 675.84 0 1024 0 C1024 337.92 1024 675.84 1024 1024 C686.08 1024 348.16 1024 0 1024 C0 686.08 0 348.16 0 0 Z " fill="#FAFAFB" transform="translate(0,0)"/>
<path d="M0 0 C0.96456578 -0.00260775 1.92913156 -0.00521549 2.9229266 -0.00790226 C3.99011876 -0.00567154 5.05731092 -0.00344082 6.15684223 -0.0011425 C7.28475612 -0.00270249 8.41267002 -0.00426248 9.57476312 -0.00586975 C13.38023745 -0.00988021 17.18567237 -0.00668986 20.99114704 -0.00355339 C23.7091146 -0.004357 26.42708046 -0.00665106 29.14504719 -0.00886345 C35.77794795 -0.01331995 42.41083742 -0.012345 49.04373863 -0.00945081 C54.43550889 -0.00719536 59.82727599 -0.00688488 65.21904659 -0.00797462 C66.36877113 -0.00820447 66.36877113 -0.00820447 67.54172242 -0.00843897 C69.09872824 -0.00875869 70.65573405 -0.0090829 72.21273986 -0.00941156 C86.82925691 -0.01226624 101.44576771 -0.00898001 116.06228373 -0.00361119 C128.60221397 0.00085238 141.14213494 0.00008458 153.68206501 -0.00452995 C168.23739106 -0.00988361 182.7927116 -0.01198685 197.34803849 -0.00891769 C198.90094777 -0.00859914 200.45385704 -0.00828477 202.00676632 -0.00797462 C202.7708499 -0.00782035 203.53493349 -0.00766607 204.32217112 -0.00750712 C209.70451388 -0.00664401 215.08685315 -0.00810052 220.46919537 -0.01045418 C227.03313295 -0.01326135 233.59705857 -0.01249472 240.16099479 -0.00717343 C243.50965283 -0.00454813 246.85827448 -0.0040512 250.20693493 -0.00682259 C253.83902031 -0.00955149 257.4710495 -0.00613145 261.10313129 -0.0011425 C262.68718912 -0.00448858 262.68718912 -0.00448858 264.30324811 -0.00790226 C273.77537076 0.0173645 280.34178273 0.31303613 287.44744587 7.12584114 C291.25988412 11.50427163 291.87998198 15.60621061 291.78338337 21.30552864 C291.40212264 24.50634548 290.69877731 27.56158275 289.97332478 30.69957161 C288.93521074 35.48916179 288.29667966 40.34841968 287.59197712 45.19615364 C287.4121529 46.38724739 287.4121529 46.38724739 287.22869587 47.60240364 C287.07497517 48.65548714 287.07497517 48.65548714 286.91814899 49.72984505 C286.29122437 52.92104749 285.35202045 56.00343196 284.44744587 59.12584114 C285.41412693 59.12215397 286.38080799 59.1184668 287.37678242 59.11466789 C310.90467425 59.02584635 334.43254432 58.96012704 357.96056843 58.91859245 C369.3385791 58.89797245 380.71647897 58.86986246 392.09441853 58.82408333 C402.01211624 58.78419852 411.9297337 58.75840424 421.84750938 58.74948716 C427.09829932 58.74427524 432.34885968 58.73203677 437.599576 58.70292091 C442.54403986 58.67572598 447.48818005 58.66740445 452.4327116 58.67341042 C454.24510871 58.67231201 456.05751688 58.66438248 457.86984921 58.64901924 C460.35037295 58.62902709 462.82968527 58.63393495 465.31023884 58.64482307 C466.02232533 58.63317171 466.73441183 58.62152034 467.46807671 58.60951591 C473.72947548 58.68347071 478.88005049 60.81664681 483.50603962 64.97740364 C483.96107868 65.56263802 484.41611774 66.14787239 484.88494587 66.75084114 C485.35803181 67.34123177 485.83111774 67.93162239 486.31853962 68.53990364 C491.61413906 75.97939628 488.13399802 89.17635028 486.87322712 97.66880989 C486.7091486 98.82412209 486.54507008 99.97943428 486.37601948 101.16975594 C485.84607634 104.88560097 485.30331685 108.59943816 484.75994587 112.31334114 C484.38976325 114.88737557 484.02030141 117.46151376 483.65154743 120.03575325 C482.75316863 126.29197534 481.84434763 132.54662242 480.93163776 138.8007679 C480.37729538 142.60758301 479.82929438 146.41528062 479.28286457 150.22323799 C477.27562131 164.20452946 475.14508757 178.15535111 472.75286579 192.07676888 C471.81449725 197.62586282 471.06117168 203.1509323 470.50994587 208.75084114 C469.6320097 217.49761349 468.1658352 226.11889815 466.68816853 234.781847 C464.4780961 247.77524626 462.42420491 260.79215333 460.38494587 273.81334114 C460.21005634 274.92848091 460.03516682 276.04362068 459.85497761 277.19255257 C457.9105979 289.5997295 455.99953376 302.00963334 454.19744587 314.43834114 C453.02844149 322.41048519 451.80856079 330.37151415 450.44744587 338.31334114 C450.23426716 339.63362312 450.23426716 339.63362312 450.01678181 340.98057747 C448.85249086 347.53323252 446.96490642 353.46029468 442.32244587 358.37584114 C433.00978535 364.04441711 424.48712005 364.67549205 413.81463337 364.51646614 C412.32677699 364.50898969 410.83891065 364.50330341 409.35104084 364.49931526 C405.46779072 364.48416899 401.5851556 364.44498538 397.70214558 364.40049934 C393.72670526 364.35930624 389.75116388 364.34125337 385.77557087 364.32115364 C377.99925127 364.27847771 370.22343531 364.21036381 362.44744587 364.12584114 C362.43286335 365.12994026 362.41828083 366.13403938 362.40325642 367.16856575 C362.05919792 389.47463904 361.38111223 411.76557223 360.3150301 434.0492115 C360.19525182 436.5943934 360.08175743 439.13987902 359.97463703 441.68562508 C359.82099529 445.28662358 359.64329648 448.88566392 359.45916462 452.48521614 C359.41735065 453.55955406 359.37553669 454.63389198 359.33245564 455.7407856 C358.8898702 463.59206676 357.37919702 468.19408999 351.69744587 473.87584114 C343.85029272 479.30848563 337.07807665 479.52746185 327.79949665 479.3521595 C326.45761698 479.33817586 325.11572228 479.32558313 323.77381802 479.31420231 C320.72164331 479.28518819 317.66980022 479.24589274 314.61783314 479.2000103 C308.99396667 479.11638381 303.3699244 479.06042203 297.74572468 479.00453377 C285.03154729 478.87427863 272.31778576 478.7153304 259.6039834 478.55298543 C254.47545336 478.48769977 249.346909 478.42357745 244.21836483 478.35941261 C231.41528168 478.19917414 218.6122316 478.03646904 205.80919398 477.87264197 C194.77302974 477.73150829 183.73682627 477.59375782 172.70059989 477.45757771 C161.26937162 477.3164895 149.8381772 477.1729346 138.40700924 477.0270285 C132.02880023 476.9456479 125.65058341 476.86516805 119.27233219 476.78715897 C106.82159385 476.63416493 94.37127119 476.47012013 81.92132914 476.26122063 C76.67442786 476.1736433 71.4279794 476.1025197 66.18056333 476.05541259 C62.82397261 476.01979739 59.46818925 475.95386181 56.11199665 475.891222 C54.99938402 475.88835214 53.88677139 475.88548227 52.74044323 475.88252544 C44.62383789 475.67946932 39.85884981 473.3004915 33.97088337 467.82115364 C31.92745421 464.2058559 31.93124001 461.03679326 32.07244587 457.00084114 C32.08751179 456.2080677 32.10257771 455.41529427 32.11810017 454.59849739 C32.33576899 446.61468776 33.16315891 438.71455359 34.12664509 430.79136848 C34.46830124 427.95255426 34.78971267 425.11194316 35.10760212 422.27037239 C36.38401152 410.91915927 37.75931345 399.58260445 39.19744587 388.25084114 C40.5812456 377.34672186 41.88701929 366.43474298 43.15447712 355.51646614 C43.3062743 354.20922585 43.45807148 352.90198555 43.61446857 351.55513191 C44.37949482 344.96082673 45.14040268 338.36606544 45.89764118 331.77086067 C47.57802715 317.19665117 49.38986958 302.65178559 51.44744587 288.12584114 C50.67274952 288.19526421 49.89805317 288.26468727 49.09988117 288.33621407 C38.43194515 289.2029604 27.80923641 289.32484973 17.11150837 289.36412239 C15.68944647 289.37023568 15.68944647 289.37023568 14.23865604 289.37647247 C9.23680319 289.39715534 4.23497645 289.41154228 -0.7669096 289.42100716 C-5.91131409 289.43214046 -11.05529431 289.46666999 -16.19954777 289.50617886 C-20.18192616 289.53234281 -24.16420212 289.54069793 -28.1466589 289.54428864 C-30.04359772 289.54914127 -31.94053238 289.56071726 -33.83738613 289.57932663 C-36.48806909 289.60375363 -39.13763224 289.60274884 -41.78839397 289.59581184 C-42.94655621 289.61502693 -42.94655621 289.61502693 -44.12811565 289.6346302 C-50.56969352 289.57345886 -55.75531837 287.59399034 -60.61114788 283.30943489 C-61.06618694 282.73322395 -61.52122601 282.15701302 -61.99005413 281.56334114 C-62.46314007 280.98455208 -62.93622601 280.40576302 -63.42364788 279.80943489 C-71.16741057 268.26077842 -63.47734318 245.27423315 -61.25592327 233.01475716 C-60.64715852 229.64890718 -60.05252071 226.28112069 -59.46405315 222.9116993 C-57.94281455 214.21319115 -56.33034745 205.5339129 -54.67746258 196.85954475 C-54.06859313 193.66324566 -53.46266478 190.46639072 -52.85649395 187.26957893 C-52.39051231 184.8122782 -51.92419597 182.35504116 -51.45782757 179.8978138 C-46.69390588 154.86097228 -46.69390588 154.86097228 -42.23150921 129.76915169 C-40.41108174 119.18751497 -38.47700534 108.62644493 -36.55255413 98.06334114 C-36.38483501 97.1427491 -36.2171159 96.22215706 -36.04431438 95.27366829 C-34.67960173 87.78502247 -34.67960173 87.78502247 -34.05960369 84.39662361 C-33.17797224 79.5753255 -32.30606988 74.75249938 -31.44708538 69.92711067 C-31.2659721 68.91524193 -31.08485882 67.90337318 -30.89825726 66.86084175 C-30.54938256 64.9103123 -30.20293067 62.95934756 -29.85919476 61.00790596 C-29.70257366 60.13489342 -29.54595257 59.26188087 -29.38458538 58.36241341 C-29.24770306 57.59083397 -29.11082073 56.81925453 -28.96979046 56.0242939 C-28.55255413 54.12584114 -28.55255413 54.12584114 -27.55255413 52.12584114 C-27.08462469 49.31528405 -26.65322164 46.50696267 -26.24005413 43.68834114 C-21.16104596 10.97124653 -21.16104596 10.97124653 -12.45880413 4.59068489 C-8.23482496 1.843568 -5.0839751 0.00098625 0 0 Z " fill="#42B0FE" transform="translate(268.5525541305542,117.87415885925293)"/>
<path d="M0 0 C0.7179669 -0.00097813 1.4359338 -0.00195625 2.17565727 -0.00296402 C4.58907649 -0.00040485 7.00154689 0.02602368 9.41479492 0.05419922 C11.15208278 0.06480466 12.88937229 0.07514308 14.62666321 0.0852356 C36.47462478 0.26264261 58.30593239 1.20165262 80.13378143 2.09392929 C85.993012 2.33169301 91.85258391 2.56068382 97.7121582 2.78979492 C98.8784589 2.83541722 100.0447596 2.88103952 101.24640274 2.92804432 C103.58861937 3.01965428 105.93083713 3.11123545 108.27305603 3.2027874 C111.73451572 3.33841396 115.19593588 3.47501277 118.65734863 3.61183167 C139.16452045 4.42053391 159.67396209 5.12178386 180.18701172 5.76269531 C182.30591712 5.82963373 184.42481401 5.89684219 186.54370117 5.96435547 C187.53421982 5.99577133 188.52473846 6.02718719 189.54527283 6.05955505 C195.60989765 6.25993821 201.66488965 6.54742692 207.72338867 6.88232422 C215.55824537 7.30815759 223.38588814 7.49246732 231.23120117 7.60498047 C232.37773163 7.62169296 233.52426208 7.63840546 234.70553589 7.65562439 C239.43603851 7.7219105 244.16652564 7.7844251 248.8972168 7.83569336 C252.40454942 7.87533362 255.91155156 7.92678644 259.41870117 7.97998047 C260.48430267 7.98839462 261.54990417 7.99680878 262.64779663 8.00547791 C269.68384376 8.12303109 275.28841262 8.80649432 281.08276367 13.10888672 C282.0630957 13.81271484 282.0630957 13.81271484 283.06323242 14.53076172 C286.38290748 17.84335858 287.78123068 21.23277185 288.25170898 25.87890625 C288.23769043 27.79098877 288.23769043 27.79098877 288.22338867 29.74169922 C288.2215155 30.43721893 288.21964233 31.13273865 288.2177124 31.84933472 C288.21101998 33.31676043 288.19716163 34.78416915 288.17651367 36.25146484 C288.14564397 38.45671905 288.13555934 40.66125114 288.12963867 42.86669922 C288.09068327 48.96338947 287.95103047 54.98283039 287.41381836 61.05712891 C286.85209572 67.49032267 286.59799483 73.91345542 286.39526367 80.36669922 C286.3546582 81.57220428 286.31405273 82.77770935 286.2722168 84.01974487 C286.14376269 87.84103847 286.01916053 91.66244286 285.89526367 95.48388672 C285.73102084 100.50740762 285.56460223 105.53084745 285.39526367 110.55419922 C285.35442154 111.77011246 285.31357941 112.9860257 285.27149963 114.23878479 C285.0451886 120.75508925 284.76030713 127.26121149 284.36010742 133.76904297 C283.79171617 143.07973335 283.65709468 152.39193841 283.50683594 161.71722412 C283.2543193 176.9187886 282.81290095 192.03483664 281.6237793 207.19506836 C280.99654113 215.33464518 280.66308966 223.44837241 280.45776367 231.60888672 C280.05487004 246.24987151 279.4617461 260.88194384 278.76486206 275.51184082 C278.64398491 278.10700264 278.5296085 280.70247584 278.42190552 283.29821777 C278.26784802 286.97705297 278.0901874 290.65405867 277.90698242 294.33154297 C277.84427658 295.99525688 277.84427658 295.99525688 277.78030396 297.69258118 C277.34506165 305.68311686 275.92728749 310.3268629 270.14526367 316.10888672 C262.29811052 321.54153121 255.52589445 321.76050742 246.24731445 321.58520508 C244.90543479 321.57122144 243.56354008 321.55862871 242.22163582 321.54724789 C239.16946111 321.51823377 236.11761803 321.47893832 233.06565094 321.43305588 C227.44178447 321.34942939 221.8177422 321.29346761 216.19354248 321.23757935 C203.47936509 321.10732421 190.76560356 320.94837598 178.0518012 320.78603101 C172.92327116 320.72074534 167.7947268 320.65662303 162.66618264 320.59245819 C149.86309948 320.43221972 137.0600494 320.26951462 124.25701179 320.10568755 C113.22084755 319.96455387 102.18464407 319.8268034 91.1484177 319.69062329 C79.71718942 319.54953508 68.285995 319.40598018 56.85482705 319.26007408 C50.47661803 319.17869348 44.09840122 319.09821363 37.72014999 319.02020454 C25.26941165 318.86721051 12.81908899 318.70316571 0.36914694 318.49426621 C-4.87775433 318.40668888 -10.12420279 318.33556527 -15.37161887 318.28845817 C-18.72820959 318.25284297 -22.08399294 318.18690739 -25.44018555 318.12426758 C-26.55279818 318.12139771 -27.6654108 318.11852785 -28.81173897 318.11557102 C-36.92834431 317.91251489 -41.69333238 315.53353708 -47.58129883 310.05419922 C-49.62472799 306.43890148 -49.62094219 303.26983883 -49.47973633 299.23388672 C-49.45713745 298.04472656 -49.45713745 298.04472656 -49.43408203 296.83154297 C-49.21641321 288.84773334 -48.38902329 280.94759917 -47.42553711 273.02441406 C-47.08388095 270.18559983 -46.76246953 267.34498874 -46.44458008 264.50341797 C-45.16817068 253.15220485 -43.79286875 241.81565003 -42.35473633 230.48388672 C-40.97093659 219.57976744 -39.66516291 208.66778856 -38.39770508 197.74951172 C-38.2459079 196.44227142 -38.09411072 195.13503113 -37.93771362 193.78817749 C-37.17268737 187.1938723 -36.41177952 180.59911102 -35.65454102 174.00390625 C-34.37599237 162.91740039 -33.0690419 151.84353639 -31.51098633 140.79248047 C-30.19549576 131.42874629 -29.23287889 122.05801317 -28.39822388 112.64041138 C-27.0713041 97.73890415 -25.5663621 82.87558492 -23.67089844 68.03540039 C-22.77770844 61.03599945 -21.95379834 54.03759049 -21.248703 47.01634216 C-20.8538662 43.0952807 -20.44084025 39.17620409 -20.02755737 35.25704956 C-19.83128428 33.3470724 -19.64367394 31.43618225 -19.46536255 29.52444458 C-17.59351726 9.52785751 -17.59351726 9.52785751 -9.44810486 1.78390503 C-6.20047038 -0.19100355 -3.78995206 -0.01114749 0 0 Z " fill="#31C897" transform="translate(350.104736328125,275.64111328125)"/>
<path d="M0 0 C1.46533353 -0.00967334 1.46533353 -0.00967334 2.96026975 -0.0195421 C4.55859986 -0.01489629 4.55859986 -0.01489629 6.18921947 -0.01015663 C7.32715818 -0.01468774 8.46509689 -0.01921886 9.63751858 -0.02388728 C13.45900771 -0.03656991 17.28035503 -0.03490839 21.10186291 -0.03325844 C23.83835927 -0.03815364 26.57484563 -0.04598946 29.31133556 -0.05361366 C35.97825245 -0.07022209 42.64513397 -0.07572314 49.31206981 -0.07683842 C54.73189129 -0.07778899 60.15170111 -0.08189974 65.5715189 -0.08823967 C80.9406292 -0.10585183 96.30971157 -0.11507861 111.67883203 -0.11357872 C112.50727499 -0.11349881 113.33571796 -0.1134189 114.18926525 -0.11333656 C115.43344855 -0.11321392 115.43344855 -0.11321392 116.70276686 -0.1130888 C130.14423439 -0.11227596 143.58558985 -0.13141321 157.02702496 -0.1596133 C170.83146136 -0.18834622 184.63584312 -0.20215336 198.44031018 -0.20042574 C206.18931637 -0.19976197 213.93820509 -0.2052486 221.68718433 -0.22678185 C228.28510427 -0.24499907 234.88285347 -0.24933663 241.48078767 -0.235763 C244.84597537 -0.22923576 248.21056843 -0.2312827 251.57576847 -0.2464695 C255.22732258 -0.26188144 258.87801622 -0.2526392 262.52955151 -0.23720741 C264.11784337 -0.2526381 264.11784337 -0.2526381 265.73822194 -0.26838052 C273.08887968 -0.19972255 278.47418705 1.04119788 284.1084547 6.10883141 C284.56349377 6.69406578 285.01853283 7.27930016 285.48736095 7.88226891 C285.96044689 8.47265953 286.43353283 9.06305016 286.9209547 9.67133141 C292.21655414 17.11082404 288.73641311 30.30777805 287.4756422 38.80023766 C287.22952442 40.53320595 287.22952442 40.53320595 286.97843456 42.3011837 C286.44849142 46.01702873 285.90573194 49.73086593 285.36236095 53.44476891 C284.99217834 56.01880334 284.6227165 58.59294153 284.25396252 61.16718102 C283.35558372 67.42340311 282.44676272 73.67805019 281.53405285 79.93219566 C280.97971047 83.73901077 280.43170946 87.54670839 279.88527966 91.35466576 C277.87803639 105.33595722 275.74750266 119.28677888 273.35528088 133.20819664 C272.41691234 138.75729059 271.66358676 144.28236006 271.11236095 149.88226891 C270.23442479 158.62904125 268.76825028 167.25032592 267.29058361 175.91327477 C265.08051118 188.90667403 263.02662 201.92358109 260.98736095 214.94476891 C260.81247143 216.05990868 260.6375819 217.17504845 260.45739269 218.32398033 C258.51301298 230.73115726 256.60194885 243.14106111 254.79986095 255.56976891 C253.63085657 263.54191296 252.41097588 271.50294191 251.04986095 279.44476891 C250.90774181 280.32495689 250.76562267 281.20514488 250.61919689 282.11200523 C249.45490594 288.66466029 247.5673215 294.59172244 242.92486095 299.50726891 C233.6799113 305.13462956 225.23258167 305.8082747 214.63579845 305.64789391 C213.17036245 305.64041713 211.70491632 305.634731 210.23946667 305.63074303 C206.41539574 305.61559935 202.5919497 305.57641818 198.76812267 305.53192711 C194.85300679 305.49072824 190.93778819 305.47267993 187.0225172 305.45258141 C179.36468278 305.40991009 171.70736001 305.34179955 164.04986095 305.25726891 C163.99515915 292.06501591 164.14188105 278.88397199 164.42486095 265.69476891 C164.45604015 264.21067528 164.45604015 264.21067528 164.48784924 262.69659996 C164.83130298 246.76607063 165.47516229 230.86673676 166.31670666 214.95551109 C166.97612212 202.41121791 167.41964698 189.87115708 167.70806408 177.31293297 C167.84773245 171.63926155 168.02940262 166.00715432 168.5537672 160.35492516 C169.17430494 153.47244008 169.34247427 146.5982162 169.39995861 139.6923275 C169.41664362 138.22830003 169.44409543 136.76435801 169.48198986 135.30072594 C169.9089653 124.38426924 169.9089653 124.38426924 165.42339611 114.67401695 C161.00944692 110.12120018 156.7633319 108.48421607 150.57108593 108.10577965 C149.2659177 108.08698753 149.2659177 108.08698753 147.93438244 108.06781578 C146.93821407 108.05109825 145.94204571 108.03438072 144.91569042 108.0171566 C143.84492764 108.00358116 142.77416485 107.99000572 141.6709547 107.97601891 C140.54907253 107.95760948 139.42719036 107.93920006 138.27131176 107.92023277 C134.67671409 107.86158892 131.08206619 107.80886639 127.48736095 107.75726891 C100.53592478 107.36165828 100.53592478 107.36165828 87.72507763 106.65324974 C77.03482027 106.07017403 66.33365597 105.77885926 55.63338757 105.44132042 C35.66814399 104.80827262 15.70439694 104.13382588 -4.25446033 103.32193565 C-6.33130879 103.23764232 -8.40821339 103.15472016 -10.48517323 103.07321739 C-13.34738131 102.96033347 -16.20931583 102.84212422 -19.0712328 102.72211266 C-20.32168636 102.67375771 -20.32168636 102.67375771 -21.59740162 102.62442589 C-25.48067574 102.45487502 -29.15471909 102.17623026 -32.95013905 101.25726891 C-32.32967559 92.01540072 -31.11431502 82.9047398 -29.70013905 73.75726891 C-29.59164631 73.04604881 -29.48315357 72.33482872 -29.37137318 71.6020565 C-27.63827739 60.24737823 -25.70191156 48.94007641 -23.61957264 37.64374352 C-22.30404153 30.45985003 -21.21522221 23.31098565 -20.50482655 16.04242516 C-19.56126201 11.30466802 -17.21832877 8.14422539 -13.57513905 5.06976891 C-12.72822498 4.33693687 -12.72822498 4.33693687 -11.86420155 3.58930016 C-8.0832505 0.95806688 -4.57047306 0.00765376 0 0 Z " fill="#916BE3" transform="translate(467.95013904571533,176.74273109436035)"/>
<path d="M0 0 C2.09332707 0.95305948 3.85438721 2.04816965 5.734375 3.375 C6.55808594 3.94605469 7.38179687 4.51710938 8.23046875 5.10546875 C16.65061135 11.37365812 22.61379485 18.92982837 24.734375 29.375 C25.57496707 36.22426868 24.95579673 39.73918439 20.734375 45.375 C19.16606095 47.19813224 17.56064854 48.98993141 15.921875 50.75 C15.11105469 51.62398438 14.30023437 52.49796875 13.46484375 53.3984375 C13.03010742 53.86693115 12.59537109 54.3354248 12.14746094 54.81811523 C10.56833076 56.55794128 9.04231333 58.33844581 7.51171875 60.12109375 C3.26641539 64.99163862 -1.30065375 69.51914565 -5.890625 74.0625 C-6.72335937 74.89072266 -7.55609375 75.71894531 -8.4140625 76.57226562 C-10.01541121 78.16468962 -11.61774355 79.75612525 -13.22119141 81.34643555 C-14.73924022 82.85270108 -16.25345635 84.36283135 -17.765625 85.875 C-20.05931986 88.16869486 -22.3609554 90.45404425 -24.6640625 92.73828125 C-26.32298198 94.38795516 -27.98183432 96.03769658 -29.640625 97.6875 C-30.465625 98.50412109 -31.290625 99.32074219 -32.140625 100.16210938 C-35.79021853 103.79722039 -39.3790902 107.43351862 -42.734375 111.34375 C-47.02652102 116.34000789 -51.71318199 120.92996597 -56.390625 125.5625 C-57.27105469 126.43841797 -58.15148437 127.31433594 -59.05859375 128.21679688 C-60.69560863 129.8451699 -62.33365796 131.47250423 -63.97314453 133.09838867 C-66.4097849 135.51816199 -68.83845193 137.94573173 -71.265625 140.375 C-94.265625 163.375 -94.265625 163.375 -97.00634766 166.11401367 C-98.2612127 167.36982793 -99.5139214 168.62784634 -100.7578125 169.89453125 C-111.54465587 179.98053452 -126.06545539 184.27675109 -139.81835938 188.59326172 C-143.26769092 189.69509328 -146.67045422 190.9001398 -150.078125 192.125 C-151.16867187 192.51558594 -152.25921875 192.90617188 -153.3828125 193.30859375 C-155.84678439 194.22006303 -158.27185216 195.19372878 -160.703125 196.1875 C-164.54658192 197.46865231 -167.24860118 197.91575321 -171.265625 197.375 C-173.703125 195.9375 -173.703125 195.9375 -175.265625 193.375 C-176.16273194 189.47453503 -176.15991212 185.91511894 -174.11621094 182.39550781 C-173.62411133 181.73389648 -173.13201172 181.07228516 -172.625 180.390625 C-168.66257583 174.69706173 -165.82718325 168.58026321 -162.890625 162.3125 C-162.31787378 161.10711884 -161.74413422 159.90220684 -161.16943359 158.69775391 C-159.10717585 154.37199961 -157.05479516 150.04160277 -155.00390625 145.71044922 C-153.97658612 143.55172521 -152.93607311 141.39998676 -151.890625 139.25 C-151.34664063 138.11304688 -150.80265625 136.97609375 -150.2421875 135.8046875 C-143.96341155 124.90989445 -134.65134591 116.55748752 -125.765625 107.8125 C-123.67140644 105.74612366 -121.57877297 103.67820246 -119.48913574 101.60719299 C-118.19747806 100.32755883 -116.90316145 99.05060023 -115.60559082 97.77696228 C-111.81399753 94.02681119 -108.24136444 90.1465254 -104.76701355 86.10028076 C-102.96350223 84.02782365 -101.05261101 82.09684833 -99.078125 80.1875 C-96.97023632 78.11588474 -95.08744436 76.14670606 -93.265625 73.8125 C-91.48618536 71.64380793 -89.77023026 70.02632259 -87.64453125 68.21875 C-83.31365893 64.4650341 -79.24264273 60.50052608 -75.203125 56.4375 C-74.53474609 55.77298828 -73.86636719 55.10847656 -73.17773438 54.42382812 C-69.934908 51.17469888 -66.79529917 47.88295042 -63.796875 44.40625 C-60.00090343 40.00958541 -55.94509833 35.90723945 -51.828125 31.8125 C-51.11591797 31.09642578 -50.40371094 30.38035156 -49.66992188 29.64257812 C-45.62917442 25.60917082 -41.48120366 21.78191529 -37.15649414 18.05639648 C-33.61243951 14.9049563 -30.36984619 11.4482938 -27.11132812 8.00585938 C-19.37386274 0.06054999 -11.13074149 -3.07054938 0 0 Z " fill="#0A1420" transform="translate(574.265625,336.625)"/>
<path d="M0 0 C0.87855148 -0.00029205 1.75710297 -0.00058411 2.66227722 -0.00088501 C5.55709822 0.00050483 8.45165968 0.01604983 11.34643555 0.03173828 C13.35711018 0.03546964 15.36778664 0.03831603 17.37846375 0.04031372 C22.66387983 0.04794051 27.94918555 0.06758086 33.23455811 0.08972168 C38.63055936 0.11020063 44.02657849 0.11931983 49.42260742 0.12939453 C60.00533813 0.1508276 70.58798703 0.18495208 81.1706543 0.22705078 C80.96560272 1.38345062 80.76055115 2.53985046 80.54928589 3.73129272 C80.27705712 5.26942561 80.00485173 6.80756262 79.73266602 8.34570312 C79.53050728 9.48524696 79.53050728 9.48524696 79.32426453 10.64781189 C78.41543458 15.78722879 77.56051019 20.9331037 76.73852539 26.0871582 C75.12181281 36.18047129 73.21565382 46.16395865 70.92114258 56.12597656 C69.58714154 61.98454558 68.5768702 67.83714791 67.69750977 73.78051758 C66.7640161 79.88715803 65.64447939 85.9608759 64.5456543 92.03955078 C64.31620117 93.31636719 64.08674805 94.59318359 63.8503418 95.90869141 C63.29189092 99.0150744 62.73197462 102.12118525 62.1706543 105.22705078 C43.87447 105.47403853 25.64906793 104.80230609 7.37573242 104.00024414 C3.30452713 103.82156019 -0.76697185 103.6509557 -4.83861732 103.48263645 C-8.00774793 103.35086632 -11.17670576 103.21527098 -14.34562302 103.07847404 C-15.84862968 103.01398545 -17.35168405 102.95059863 -18.85478592 102.88836861 C-20.93975595 102.80141418 -23.02444138 102.70937675 -25.10913086 102.6159668 C-26.28996246 102.56489273 -27.47079407 102.51381866 -28.68740845 102.4611969 C-31.48715456 102.25255184 -34.09632023 101.85209347 -36.8293457 101.22705078 C-36.20888225 91.9851826 -34.99352168 82.87452167 -33.5793457 73.72705078 C-33.47085297 73.01583069 -33.36236023 72.3046106 -33.25057983 71.57183838 C-31.51748405 60.2171601 -29.58111822 48.90985829 -27.4987793 37.61352539 C-26.18324819 30.4296319 -25.09442886 23.28076752 -24.3840332 16.01220703 C-23.44046867 11.27444989 -21.09753543 8.11400727 -17.4543457 5.03955078 C-16.60743164 4.30671875 -16.60743164 4.30671875 -15.7434082 3.55908203 C-10.64697602 0.01238127 -5.99067642 -0.05230304 0 0 Z " fill="#655EEA" transform="translate(471.829345703125,176.77294921875)"/>
<path d="M0 0 C7.26 0 14.52 0 22 0 C22.33 14.85 22.66 29.7 23 45 C24.98 42.525 24.98 42.525 27 40 C35.41307996 33.73494046 42.82609691 33.31521806 53 34 C55.98562156 34.5767678 58.34234479 35.54239941 61 37 C61.82113281 37.42539062 62.64226562 37.85078125 63.48828125 38.2890625 C74.87415524 44.59768009 79.95064522 53.68357788 84.375 65.75 C87.23975324 80.16328975 84.90572453 96.48139965 76.7578125 108.78515625 C70.66560838 116.46133344 63.58473692 121.28224254 54.125 123.75 C53.09375 123.8325 52.0625 123.915 51 124 C49.81664062 124.11214844 49.81664062 124.11214844 48.609375 124.2265625 C40.40888931 124.67173172 32.71488405 122.64959644 26.1328125 117.5546875 C24.75 116.1875 24.75 116.1875 23 114 C22.67 116.64 22.34 119.28 22 122 C14.74 122 7.48 122 0 122 C0 81.74 0 41.48 0 0 Z " fill="#111D2D" transform="translate(419,668)"/>
<path d="M0 0 C7.26 0 14.52 0 22 0 C22.33 14.52 22.66 29.04 23 44 C25.64 41.69 28.28 39.38 31 37 C35.99068782 34.27376027 40.31919204 33.50796593 45.9375 33.625 C46.99626343 33.64022705 46.99626343 33.64022705 48.07641602 33.65576172 C53.31195832 33.81197427 57.46872597 34.37819298 62 37 C63.10214844 37.62068359 63.10214844 37.62068359 64.2265625 38.25390625 C74.04057546 44.27688745 80.52964379 52.74119904 83.59204102 63.85180664 C86.29167883 78.06731418 85.56129513 95.67982355 77.375 107.8125 C69.80051795 117.37011917 61.17003219 122.87263229 48.91796875 124.37890625 C39.97818857 124.7346613 32.73136989 122.54837293 25.875 116.75 C24.92625 115.8425 23.9775 114.935 23 114 C22.67 116.64 22.34 119.28 22 122 C14.74 122 7.48 122 0 122 C0 81.74 0 41.48 0 0 Z " fill="#101C2C" transform="translate(517,668)"/>
<path d="M0 0 C7.26 0 14.52 0 22 0 C22 40.26 22 80.52 22 122 C14.74 122 7.48 122 0 122 C-0.495 118.04 -0.495 118.04 -1 114 C-1.43570313 114.39832031 -1.87140625 114.79664063 -2.3203125 115.20703125 C-2.91585937 115.73683594 -3.51140625 116.26664063 -4.125 116.8125 C-4.70507812 117.33457031 -5.28515625 117.85664062 -5.8828125 118.39453125 C-13.29253152 124.01334033 -20.75830767 124.07207081 -29.69775391 123.34912109 C-37.92754847 122.10112468 -46.06622693 117.19167795 -51.54296875 111.0078125 C-59.15471816 100.51869937 -61.35675799 90.81765308 -61.3125 78.0625 C-61.32861328 77.13759766 -61.34472656 76.21269531 -61.36132812 75.25976562 C-61.36998334 62.90876951 -57.12495732 52.31304312 -48.75 43.1875 C-40.25253074 35.16421987 -30.39833262 33.5339495 -19.1875 33.71875 C-11.01251852 34.07919892 -7.22604567 37.81162861 -1 43 C-0.67 28.81 -0.34 14.62 0 0 Z " fill="#101C2C" transform="translate(453,809)"/>
<path d="M0 0 C6.93 0 13.86 0 21 0 C21 40.26 21 80.52 21 122 C14.07 122 7.14 122 0 122 C-0.495 117.545 -0.495 117.545 -1 113 C-1.680625 114.0828125 -1.680625 114.0828125 -2.375 115.1875 C-7.87084611 121.07590655 -13.6714406 123.22803206 -21.62646484 123.54589844 C-33.92816275 123.63194199 -41.79499286 121.03291768 -50.80859375 112.34375 C-61.42501322 100.98929067 -62.85491917 87.12915695 -62.3828125 72.203125 C-61.70692156 60.34315185 -56.90628465 50.42200381 -48.3125 42.25 C-40.35006697 35.7927528 -32.70523492 33.17281967 -22.4375 33.578125 C-14.43289986 34.56050774 -7.65911402 37.18793695 -2 43 C-2 43.66 -2 44.32 -2 45 C-1.34 45 -0.68 45 0 45 C0 30.15 0 15.3 0 0 Z " fill="#0F1B2B" transform="translate(923,668)"/>
<path d="M0 0 C9.95576416 7.20546421 15.64022202 16.78043682 18.41796875 28.75 C19.88659891 43.10103525 17.98934444 55.86695643 9.41796875 67.75 C8.84046875 68.61625 8.26296875 69.4825 7.66796875 70.375 C1.0078509 77.4051244 -8.51271896 82.69677098 -18.21875 83.38671875 C-20.23514657 83.43597575 -22.25258471 83.45192393 -24.26953125 83.4375 C-25.32664307 83.43024902 -26.38375488 83.42299805 -27.47290039 83.41552734 C-39.11937471 83.05333136 -47.26432549 79.51122063 -55.58203125 71.125 C-65.98337518 58.47261896 -67.51731572 45.41517681 -66.58203125 29.75 C-64.91226161 18.37715955 -59.24040483 8.06679527 -50.01953125 1.1875 C-35.07283656 -8.7624799 -15.35751405 -9.90500131 0 0 Z " fill="#111D2D" transform="translate(211.58203125,708.25)"/>
<path d="M0 0 C10.43329494 6.06350582 15.74444416 15.23399258 19.61328125 26.41796875 C20.61114852 30.72383437 20.76330333 34.64723384 20.71875 39.046875 C20.73035156 40.18672852 20.73035156 40.18672852 20.7421875 41.34960938 C20.699905 53.72781092 15.8401726 65.41578795 7.3125 74.4296875 C-2.88645795 83.72111106 -14.76910314 85.02213067 -28.05078125 84.6484375 C-38.14829666 83.9570886 -46.98295217 79.03769976 -53.78125 71.55078125 C-61.21013153 61.18682823 -63.70982685 51.41199382 -63.78125 38.859375 C-63.8121875 37.52326172 -63.8121875 37.52326172 -63.84375 36.16015625 C-63.91417648 24.02919436 -59.95500428 14.82862198 -51.578125 6.06640625 C-37.28535353 -7.12908552 -17.03268298 -8.93845959 0 0 Z " fill="#101C2D" transform="translate(676.53125,706.890625)"/>
<path d="M0 0 C5.83361141 4.70107879 8.66595997 9.5056924 11.0078125 16.53125 C11.09713558 18.63215021 11.12540519 20.73582877 11.12133789 22.83862305 C11.12122459 24.79030647 11.12122459 24.79030647 11.12110901 26.78141785 C11.11600235 28.2019352 11.11078635 29.62245217 11.10546875 31.04296875 C11.10360341 32.49599662 11.10218006 33.94902511 11.10118103 35.40205383 C11.09736496 39.22431172 11.08754243 43.04653155 11.07647705 46.86877441 C11.06624337 50.76993291 11.06167921 54.67109757 11.05664062 58.57226562 C11.04591935 66.22527977 11.02832991 73.8782547 11.0078125 81.53125 C4.0778125 81.53125 -2.8521875 81.53125 -9.9921875 81.53125 C-10.3221875 78.23125 -10.6521875 74.93125 -10.9921875 71.53125 C-11.4665625 72.253125 -11.9409375 72.975 -12.4296875 73.71875 C-17.03282108 78.77096979 -23.26780715 82.14180421 -30.1394043 82.70825195 C-32.65294108 82.77516231 -35.16540733 82.81612055 -37.6796875 82.84375 C-38.54013672 82.87275391 -39.40058594 82.90175781 -40.28710938 82.93164062 C-47.95212099 83.00673117 -54.1373331 80.85402879 -60.3046875 76.28125 C-66.68841191 69.74906689 -67.62486257 63.73961538 -67.53076172 54.82788086 C-67.21631737 47.64859495 -65.42151915 42.76687464 -60.125 37.76953125 C-49.03502793 28.85871712 -36.98736762 29.37859663 -23.4296875 29.46875 C-21.48739258 29.47551758 -21.48739258 29.47551758 -19.50585938 29.48242188 C-16.3345865 29.49412399 -13.16341204 29.51051887 -9.9921875 29.53125 C-10.25345609 27.92483434 -10.53143355 26.32113045 -10.81640625 24.71875 C-10.96940186 23.82542969 -11.12239746 22.93210937 -11.2800293 22.01171875 C-12.65862927 17.21001298 -16.06769727 15.6538693 -20.2421875 13.21875 C-25.70902632 11.85204029 -30.96219335 11.84181802 -36.3046875 13.65625 C-39.20920671 15.47236964 -39.20920671 15.47236964 -41.3671875 18.71875 C-43.9921875 21.53125 -43.9921875 21.53125 -47.6171875 22.03125 C-52.79238704 21.63468299 -57.91453693 20.57664865 -62.9921875 19.53125 C-62.53391088 12.19882408 -60.06481637 7.29216289 -54.56640625 2.3515625 C-40.10072946 -8.81995027 -15.36761737 -11.32985123 0 0 Z " fill="#101C2C" transform="translate(771.9921875,708.46875)"/>
<path d="M0 0 C7.43588823 5.36745453 10.91017816 11.41081149 13.1875 20.1875 C13.69285184 25.07747285 13.65616271 29.91254451 13.578125 34.82421875 C13.57064438 36.19854398 13.56496008 37.57288004 13.56097412 38.94721985 C13.54586045 42.52634268 13.50670709 46.10479351 13.4621582 49.68365479 C13.42089283 53.35085973 13.40289711 57.01817559 13.3828125 60.68554688 C13.34019431 67.85320325 13.26996694 75.02017103 13.1875 82.1875 C6.2575 82.1875 -0.6725 82.1875 -7.8125 82.1875 C-7.8125 78.5575 -7.8125 74.9275 -7.8125 71.1875 C-8.4725 71.1875 -9.1325 71.1875 -9.8125 71.1875 C-10.01875 71.744375 -10.225 72.30125 -10.4375 72.875 C-13.89948315 78.69742621 -19.4369702 81.47567843 -25.8125 83.1875 C-29.13745483 83.6106326 -32.40149174 83.653053 -35.75 83.625 C-36.59240234 83.64498047 -37.43480469 83.66496094 -38.30273438 83.68554688 C-46.47137031 83.67925847 -53.95103733 81.04896267 -59.8125 75.1875 C-65.26903746 67.28939324 -65.68666362 59.60000596 -64.8125 50.1875 C-62.68683595 42.7377428 -58.52411501 37.92718217 -51.8125 34.1875 C-45.18100997 31.07975375 -39.03353062 30.05889987 -31.76171875 30.08984375 C-31.10291214 30.0912587 -30.44410553 30.09267365 -29.76533508 30.09413147 C-27.67684238 30.099695 -25.58845989 30.11224053 -23.5 30.125 C-22.07747551 30.13001972 -20.65494934 30.1345818 -19.23242188 30.13867188 C-15.75907923 30.14965243 -12.28580039 30.16689165 -8.8125 30.1875 C-8.93213716 28.74789755 -9.06326818 27.30924732 -9.19921875 25.87109375 C-9.27100342 25.06986084 -9.34278809 24.26862793 -9.41674805 23.44311523 C-9.99349177 20.15592505 -11.41628227 18.446791 -13.8125 16.1875 C-17.51213954 13.70056891 -21.37809164 13.82040717 -25.6875 13.8125 C-26.38230469 13.78800781 -27.07710938 13.76351562 -27.79296875 13.73828125 C-32.96003982 13.70908876 -35.89706436 14.85645774 -39.8125 18.1875 C-41.20118516 20.28789331 -41.20118516 20.28789331 -41.8125 22.1875 C-44.22950987 22.04620713 -46.64600429 21.89963513 -49.0625 21.75 C-49.74441406 21.71068359 -50.42632812 21.67136719 -51.12890625 21.63085938 C-54.45698041 21.42083528 -57.61505402 21.16815998 -60.8125 20.1875 C-60.49864778 12.81197278 -57.2448263 7.44997923 -51.91796875 2.38671875 C-37.8014076 -8.83413755 -15.11519925 -9.39460182 0 0 Z " fill="#101C2C" transform="translate(388.8125,707.8125)"/>
<path d="M0 0 C5.98343014 2.80053466 10.55719066 7.88739946 13 14 C13.88859654 17.93424421 13.9575784 21.24133462 11.99609375 24.84375 C8.60810177 29.09080547 4.24997986 32.19092471 -0.015625 35.5 C-3.77226018 38.64691952 -7.22761403 42.03284087 -10.6875 45.5 C-11.30488037 46.11681641 -11.92226074 46.73363281 -12.55834961 47.36914062 C-15.60499731 50.45118134 -18.53894427 53.58772412 -21.36328125 56.875 C-26.25549653 62.53194541 -31.64581519 67.69090499 -36.97265625 72.93359375 C-37.77574219 73.72894531 -38.57882812 74.52429688 -39.40625 75.34375 C-40.47842773 76.39852539 -40.47842773 76.39852539 -41.57226562 77.47460938 C-43.48992599 79.46940813 -45.29594112 81.48705755 -47.09692383 83.58374023 C-51.84747887 89.05042741 -56.94898322 94.17305982 -62.04296875 99.31640625 C-62.56111963 99.83988081 -63.07927052 100.36335537 -63.61312294 100.90269279 C-66.34430876 103.66036814 -69.07899368 106.41452328 -71.81616211 109.16625977 C-74.07614038 111.43968492 -76.328582 113.72020805 -78.57495117 116.00708008 C-81.30174228 118.78300083 -84.04043121 121.54662044 -86.78832436 124.30164909 C-87.83040246 125.35045171 -88.86821154 126.40351385 -89.90163231 127.46084785 C-91.33990937 128.93055393 -92.79295686 130.38389754 -94.25073242 131.83422852 C-95.07345139 132.66503433 -95.89617035 133.49584015 -96.74382019 134.3518219 C-99 136 -99 136 -101.14399719 135.88780212 C-103.96030691 134.54064589 -105.88513025 132.53650696 -108.125 130.375 C-112.55817089 126.20435875 -117.06135016 122.72477525 -122.19921875 119.47265625 C-122.79347656 118.98667969 -123.38773437 118.50070312 -124 118 C-124 117.01 -124 116.02 -124 115 C-123.34 115 -122.68 115 -122 115 C-121.74524241 114.42006413 -121.49048483 113.84012825 -121.22800732 113.24261856 C-119.86778766 110.75855043 -118.35796486 109.11463543 -116.35188293 107.11810303 C-115.59356171 106.35847763 -114.83524048 105.59885223 -114.05393982 104.81620789 C-112.80484581 103.58025627 -112.80484581 103.58025627 -111.53051758 102.31933594 C-110.65389465 101.44402725 -109.77727173 100.56871857 -108.87408447 99.66688538 C-106.96815402 97.76522022 -105.06051081 95.86548173 -103.14966774 93.96877289 C-100.1222669 90.96368824 -97.10201534 87.95148604 -94.08268738 84.93829346 C-89.2995515 80.16653841 -84.51177047 75.39947559 -79.72193879 70.63444257 C-71.16230682 62.11906767 -62.6081117 53.59824071 -54.05927771 45.07202554 C-51.0632566 42.08436167 -48.06445049 39.09953088 -45.06329978 36.11702013 C-42.74573947 33.81271386 -40.43140312 31.50517233 -38.11645508 29.19824219 C-37.29384689 28.38237137 -36.47123871 27.56650055 -35.623703 26.72590637 C-31.40055287 22.51104297 -27.34149198 18.22170891 -23.46709728 13.68297195 C-21.42562721 11.34111165 -19.19617208 9.19617208 -17 7 C-16.09491123 5.92438725 -15.19914917 4.84086283 -14.3125 3.75 C-10.31731215 -1.00103419 -5.92554216 -0.89360299 0 0 Z " fill="#31C695" transform="translate(571,351)"/>
<path d="M0 0 C1.29067383 -0.0309375 1.29067383 -0.0309375 2.60742188 -0.0625 C13.75911204 -0.12972948 22.07576066 3.74228883 30.3125 11.25 C32.86272446 14.38508999 34.64293213 17.57802436 36.3125 21.25 C36.92931641 22.57257812 36.92931641 22.57257812 37.55859375 23.921875 C41.41982845 33.59500276 40.3125 39.83626455 40.3125 51.25 C21.1725 51.25 2.0325 51.25 -17.6875 51.25 C-15.9623073 61.26141012 -15.9623073 61.26141012 -10.6875 68.25 C-4.92994432 71.65753295 0.70713246 72.21951211 7.3125 71.25 C12.42320887 69.48843652 16.30739592 67.40219248 19.875 63.3125 C22.3125 61.25 22.3125 61.25 24.36328125 61.3125 C26.7417089 61.82416175 29.00195512 62.49031489 31.3125 63.25 C32.66569305 63.62849824 34.01976205 64.00389022 35.375 64.375 C36.344375 64.66375 37.31375 64.9525 38.3125 65.25 C37.10075191 73.01063385 32.79019512 78.49591009 26.5625 83.125 C18.41988653 88.30884994 11.26907098 89.50075417 1.75 89.625 C0.95859619 89.63909912 0.16719238 89.65319824 -0.64819336 89.66772461 C-10.88944293 89.58387564 -20.40201967 85.66412495 -28.14453125 78.91796875 C-38.65794123 67.55283948 -41.09818766 54.16565683 -40.96484375 39.171875 C-40.0844993 26.72306045 -34.61652599 16.37523647 -25.68359375 7.8203125 C-17.69242236 1.53371583 -9.83599085 0.05764683 0 0 Z " fill="#0F1B2B" transform="translate(528.6875,842.75)"/>
<path d="M0 0 C6.82605644 4.0234454 12.58229422 8.42382054 16.51171875 15.48046875 C17.171875 18.2265625 17.171875 18.2265625 17.51171875 20.48046875 C14.21127278 22.22034168 10.87686851 23.86954537 7.51171875 25.48046875 C6.87105469 25.81820312 6.23039062 26.1559375 5.5703125 26.50390625 C3.88671875 27.23046875 3.88671875 27.23046875 0.51171875 27.48046875 C-1.76549924 25.95192517 -3.62740319 24.21854438 -5.59375 22.30859375 C-9.50686852 18.53263608 -13.09751742 17.30013985 -18.42578125 17.04296875 C-24.69166489 17.25026114 -28.34091131 19.33309881 -32.80078125 23.79296875 C-37.6369377 31.49499568 -37.19894531 40.73315921 -36.48828125 49.48046875 C-34.99710718 55.38874222 -32.21481296 59.58108009 -27.48828125 63.48046875 C-22.94791063 66.17989078 -18.63807389 66.09316998 -13.48828125 65.48046875 C-7.14135407 63.61438277 -3.34925754 59.68693678 0.51171875 54.48046875 C6.74612043 56.07007207 12.6745952 57.75647776 18.51171875 60.48046875 C17.48158615 67.36417835 13.60537769 72.38680981 8.76171875 77.23046875 C-3.5125821 85.72806164 -14.88757354 86.66270134 -29.48828125 85.48046875 C-38.4494336 83.57680426 -45.61247658 78.42460155 -51.48828125 71.48046875 C-53.91648114 67.62512389 -55.76205748 63.69063168 -57.48828125 59.48046875 C-57.82730469 58.76503906 -58.16632812 58.04960938 -58.515625 57.3125 C-62.94706036 46.7546563 -61.4902409 31.94597078 -57.48828125 21.48046875 C-52.03682126 9.84729088 -43.57948334 2.19840255 -31.78515625 -2.625 C-21.54282168 -5.40402206 -9.48295766 -4.72164001 0 0 Z " fill="#111D2D" transform="translate(118.48828125,705.51953125)"/>
<path d="M0 0 C7.59 0 15.18 0 23 0 C23.68449219 2.1965625 24.36898437 4.393125 25.07421875 6.65625 C28.28714646 16.94799909 31.55064868 27.22367706 34.8125 37.5 C35.41604711 39.40233376 36.01956292 41.30467745 36.62304688 43.20703125 C38.0816716 47.8048017 39.54071567 52.40243886 41 57 C43.1542093 53.76868606 44.1600899 50.90806566 45.390625 47.2265625 C45.61604477 46.55426102 45.84146454 45.88195953 46.07371521 45.18928528 C46.80442298 43.00290777 47.52767581 40.8141603 48.25 38.625 C48.49577789 37.88500763 48.74155579 37.14501526 48.99478149 36.38259888 C52.99270216 24.33785591 56.64476839 12.24206128 60 0 C67.59 0 75.18 0 83 0 C80.74898974 10.12954616 80.74898974 10.12954616 79.1171875 14.79296875 C78.57976929 16.3385144 78.57976929 16.3385144 78.03149414 17.9152832 C77.64985107 18.99511475 77.26820801 20.07494629 76.875 21.1875 C76.47466553 22.3324292 76.07433105 23.4773584 75.66186523 24.65698242 C72.8753433 32.59826722 70.0098583 40.50936375 67.10888672 48.40942383 C62.55206311 60.8731424 58.29659127 73.44479681 54 86 C45.75 86 37.5 86 29 86 C25.52189846 76.956936 22.26631127 67.89454996 19.25 58.6875 C15.89156682 48.44654522 12.23063523 38.33897445 8.41308594 28.26049805 C6.26629552 22.56321335 4.27528696 16.88127942 2.60742188 11.02441406 C1.9854877 8.82902199 1.9854877 8.82902199 0.8125 6.125 C0 4 0 4 0 0 Z " fill="#111D2D" transform="translate(572,845)"/>
<path d="M0 0 C7.26 0 14.52 0 22 0 C22.01981934 3.04911621 22.03963867 6.09823242 22.06005859 9.23974609 C22.12685135 19.29412962 22.20449216 29.34840804 22.28752708 39.40266991 C22.33755438 45.50084517 22.38388372 51.59900256 22.421875 57.69726562 C22.45864667 63.57822222 22.50498417 69.45903158 22.55806351 75.33986282 C22.57665075 77.5877996 22.59174254 79.83576799 22.60334396 82.08375168 C22.62013251 85.22314406 22.64914927 88.362196 22.68115234 91.50146484 C22.68331253 92.43869888 22.68547272 93.37593292 22.68769836 94.34156799 C22.69886185 95.19414688 22.71002533 96.04672577 22.7215271 96.92514038 C22.72705786 97.66810553 22.73258862 98.41107067 22.73828697 99.17654991 C22.84987487 101.24952508 22.84987487 101.24952508 25 103 C27.64 103.33 30.28 103.66 33 104 C33 109.94 33 115.88 33 122 C29.99900412 122.10890711 27.00203622 122.18773555 24 122.25 C23.16082031 122.28351563 22.32164062 122.31703125 21.45703125 122.3515625 C15.45089742 122.44468085 10.96828745 121.49175623 6 118 C4.16015625 115.96484375 4.16015625 115.96484375 3.0625 113.9375 C2.49208984 112.93009766 2.49208984 112.93009766 1.91015625 111.90234375 C0.36528808 108.67337037 -0.12439368 106.10780599 -0.12025452 102.57710266 C-0.12162918 101.67266418 -0.12300385 100.76822571 -0.12442017 99.83638 C-0.12082489 98.84663681 -0.11722961 97.85689362 -0.11352539 96.8371582 C-0.11367142 95.79308807 -0.11381744 94.74901794 -0.1139679 93.67330933 C-0.11327018 90.21577897 -0.10548431 86.75830222 -0.09765625 83.30078125 C-0.09579157 80.9061028 -0.0943679 78.51142396 -0.09336853 76.116745 C-0.08954728 69.80877635 -0.07972031 63.50083066 -0.06866455 57.19287109 C-0.05844202 50.75814118 -0.0538691 44.32340756 -0.04882812 37.88867188 C-0.03809772 25.25910286 -0.02050406 12.62955693 0 0 Z " fill="#121E2E" transform="translate(240,668)"/>
<path d="M0 0 C7.26 0 14.52 0 22 0 C22.01981934 3.04911621 22.03963867 6.09823242 22.06005859 9.23974609 C22.12685135 19.29412962 22.20449216 29.34840804 22.28752708 39.40266991 C22.33755438 45.50084517 22.38388372 51.59900256 22.421875 57.69726562 C22.45864667 63.57822222 22.50498417 69.45903158 22.55806351 75.33986282 C22.57665075 77.5877996 22.59174254 79.83576799 22.60334396 82.08375168 C22.62013251 85.22314406 22.64914927 88.362196 22.68115234 91.50146484 C22.68331253 92.43869888 22.68547272 93.37593292 22.68769836 94.34156799 C22.69886185 95.19414688 22.71002533 96.04672577 22.7215271 96.92514038 C22.72705786 97.66810553 22.73258862 98.41107067 22.73828697 99.17654991 C22.84987487 101.24952508 22.84987487 101.24952508 25 103 C27.64 103.33 30.28 103.66 33 104 C33 109.94 33 115.88 33 122 C29.99900412 122.10890711 27.00203622 122.18773555 24 122.25 C23.16082031 122.28351563 22.32164062 122.31703125 21.45703125 122.3515625 C15.48226589 122.44419452 10.95247139 121.4655434 6 118 C0.00675025 110.90273056 -0.29365097 103.42741389 -0.22705078 94.56665039 C-0.22734283 93.5415033 -0.22763489 92.5163562 -0.22793579 91.46014404 C-0.22654824 88.08922712 -0.21101396 84.71853431 -0.1953125 81.34765625 C-0.19158033 79.00353618 -0.18873432 76.65941455 -0.18673706 74.31529236 C-0.17911668 68.1585964 -0.15948182 62.00199545 -0.1373291 55.84533691 C-0.11683634 49.55771164 -0.10772801 43.27007095 -0.09765625 36.98242188 C-0.07623447 24.65489955 -0.04106525 12.32747256 0 0 Z " fill="#131F2E" transform="translate(283,668)"/>
<path d="M0 0 C0 7.26 0 14.52 0 22 C-2.908125 22.0928125 -2.908125 22.0928125 -5.875 22.1875 C-12.51844162 22.7375017 -17.66930593 23.89521257 -23 28 C-27.98598673 34.83504528 -28.73809805 41.68195599 -28.70703125 49.9140625 C-28.72215256 51.00971527 -28.73727386 52.10536804 -28.75285339 53.23422241 C-28.79548414 56.69802834 -28.804545 60.16095867 -28.8125 63.625 C-28.8356633 65.98830413 -28.86103241 68.35158773 -28.88867188 70.71484375 C-28.95539193 76.4770306 -28.97660705 82.2368271 -29 88 C-36.26 88 -43.52 88 -51 88 C-51 59.62 -51 31.24 -51 2 C-43.74 2 -36.48 2 -29 2 C-28.67 4.97 -28.34 7.94 -28 11 C-27.05125 9.9275 -26.1025 8.855 -25.125 7.75 C-17.61060352 0.31104927 -10.68274731 0 0 0 Z " fill="#111D2D" transform="translate(852,702)"/>
<path d="M0 0 C5.67381586 3.29621683 9.58127631 7.84539143 11.67578125 14.12890625 C11.95458024 17.33221046 11.95329452 20.53979178 11.98828125 23.75390625 C12.01728516 24.61886719 12.04628906 25.48382812 12.07617188 26.375 C12.1529743 34.25610987 10.13068721 40.65461659 4.80078125 46.56640625 C0.99243167 50.01205587 -2.62141687 50.97123941 -7.69921875 51.44140625 C-13.7299177 50.92151841 -17.80883584 49.64428916 -22.13671875 45.31640625 C-28.36687419 36.23817975 -29.14154439 27.97920023 -28.32421875 17.12890625 C-26.69225438 9.43684486 -22.81549131 4.48752253 -16.32421875 0.12890625 C-11.08145818 -1.61868061 -5.23601822 -1.96240683 0 0 Z " fill="#F7F7F8" transform="translate(195.32421875,721.87109375)"/>
<path d="M0 0 C5.61914681 2.58437859 9.33184579 6.15978814 11.78125 11.9296875 C14.14209209 20.90710018 14.51907642 33.41855584 9.875 41.66015625 C6.84932929 45.82536528 3.43951488 49.30340274 -1.328125 51.31640625 C-7.27204799 52.04443709 -12.33005019 51.87059278 -17.328125 48.31640625 C-23.85189325 42.06848444 -26.53126823 36.59874197 -26.75927734 27.53955078 C-26.78308731 18.26282091 -26.48842433 10.70380921 -19.73046875 3.6484375 C-13.93860622 -1.43189401 -7.38424934 -2.16819402 0 0 Z " fill="#F7F7F8" transform="translate(661.328125,721.68359375)"/>
<path d="M0 0 C5.67008309 4.72506924 8.62402824 9.38079707 9.38671875 16.72265625 C9.76199587 25.41104725 9.40868934 34.11054871 3.31640625 40.8671875 C-2.23945244 45.86148628 -6.69451047 47.52860979 -14.1796875 47.37890625 C-20.09750011 46.58385386 -23.68230182 43.26040695 -27.875 39.25 C-32.9148968 31.54192254 -33.24014302 21.33635577 -31.5 12.4453125 C-29.61718355 6.09080698 -26.5792656 1.7195104 -21 -2 C-13.68866351 -3.7407944 -6.44699211 -4.24915389 0 0 Z " fill="#F6F6F7" transform="translate(570,725)"/>
<path d="M0 0 C5.60379381 2.56173431 9.32922016 6.23075338 11.7265625 11.984375 C12.78967778 15.97456981 12.95668032 19.57792429 12.92578125 23.6875 C12.91949707 24.81913574 12.91949707 24.81913574 12.91308594 25.97363281 C12.75774991 33.59831826 11.29958361 39.77988149 5.61328125 45.3125 C0.50602915 49.00376041 -4.45120294 50.01318302 -10.703125 49.76171875 C-16.53704797 48.78515231 -20.15890669 45.86342049 -23.76171875 41.3125 C-26.94701254 35.43195761 -27.72634983 31.04663067 -27.69921875 24.4375 C-27.71533203 23.66019531 -27.73144531 22.88289062 -27.74804688 22.08203125 C-27.75386129 15.1628736 -26.13390454 9.8059969 -21.44921875 4.5 C-20.96582031 3.93667969 -20.48242188 3.37335937 -19.984375 2.79296875 C-14.64076717 -2.1586874 -6.7137515 -1.93391205 0 0 Z " fill="#F6F7F8" transform="translate(910.38671875,722.6875)"/>
<path d="M0 0 C5.22747163 5.51003766 6.57546017 11.92867995 6.8125 19.375 C6.57154954 27.2747328 4.5718965 33.69780925 0.5 40.4375 C-5.04872476 45.51061978 -10.59000044 45.99430173 -17.8828125 45.78515625 C-23.15911335 45.1311301 -26.0394088 42.289802 -29.4375 38.5 C-33.85738112 32.4840507 -34.07936686 27.39080948 -34.125 20.125 C-34.17430664 18.75698242 -34.17430664 18.75698242 -34.22460938 17.36132812 C-34.28270946 9.99318116 -32.31181926 5.17051378 -27.17333984 -0.12207031 C-18.85105699 -7.5284034 -8.89141428 -5.16942691 0 0 Z " fill="#F8F8F9" transform="translate(447.6875,867.5625)"/>
<path d="M0 0 C5.1513241 3.55686664 9.63854797 7.83929042 11.1875 14.078125 C12.67096843 23.34980266 12.44827024 32.71432442 7.37109375 40.8125 C3.89743155 45.35570942 0.22774587 47.67970439 -5.375 48.8125 C-11.09349179 49.50182584 -15.51338947 49.16160948 -20.375 45.8125 C-25.81706372 40.64449704 -28.32154404 35.75280044 -28.74609375 28.16796875 C-29.14298151 11.38897395 -29.14298151 11.38897395 -24.875 5.375 C-18.1941291 -1.58424052 -9.04041689 -3.18088742 0 0 Z " fill="#F7F7F8" transform="translate(469.375,723.1875)"/>
<path d="M0 0 C-0.41232376 0.52320328 -0.82464752 1.04640656 -1.24946594 1.58546448 C-5.67754368 7.62066321 -7.09881117 12.52373718 -7.79296875 19.90234375 C-7.9095433 20.92868423 -8.02611786 21.95502472 -8.14622498 23.01246643 C-8.51643607 26.31874844 -8.85230355 29.6275023 -9.1875 32.9375 C-9.43765791 35.23202094 -9.69010912 37.52629298 -9.94482422 39.8203125 C-10.43649179 44.27597528 -10.91598104 48.73263699 -11.38330078 53.19091797 C-11.96188975 58.6909774 -12.60552956 64.17950489 -13.27929688 69.66870117 C-15.60669868 88.73005622 -17.2253021 107.88098568 -19 127 C-23.62 127 -28.24 127 -33 127 C-31.61477813 115.75031939 -30.14765095 104.54021303 -28.1875 93.375 C-26.1119446 81.46204887 -24.56773545 69.4881556 -23 57.5 C-19.61429759 31.71785243 -19.61429759 31.71785243 -17.8125 20.5625 C-17.67005859 19.64210938 -17.52761719 18.72171875 -17.38085938 17.7734375 C-16.140234 10.39829126 -13.90031653 4.91693045 -8 0 C-4.61687262 -1.12770913 -3.42069294 -1.14023098 0 0 Z " fill="#226FE1" transform="translate(340,279)"/>
<path d="M0 0 C1.13050781 -0.03738281 2.26101563 -0.07476563 3.42578125 -0.11328125 C7.34899197 0.39885045 8.89066736 1.5753862 11.6875 4.3125 C14.96532223 9.17271917 15.43345099 13.62079175 14.6875 19.3125 C12.76686852 24.67005096 9.77075568 27.77087216 4.6875 30.3125 C-0.3236158 30.86228069 -4.20946493 30.87404513 -8.75 28.5625 C-12.2111853 25.52341047 -14.08496334 23.76062091 -14.81640625 19.10546875 C-14.99405814 8.17395576 -14.99405814 8.17395576 -11.4375 4 C-7.73935735 0.45371345 -5.10858777 0.10992431 0 0 Z " fill="#101C2C" transform="translate(367.3125,901.6875)"/>
<path d="M0 0 C5.85384932 0.37040486 8.46884865 1.72222425 12.625 5.8125 C15.97517003 9.06187695 19.30769964 12.14079991 23 15 C22.63759822 17.41941469 22.39607097 18.66462562 20.49609375 20.2734375 C13.55012699 23.99025463 6.2812281 26.62810942 -1.10986328 29.30224609 C-4.50356972 30.55505067 -7.8412234 31.94396772 -11.1796875 33.3359375 C-13 34 -13 34 -15 34 C-13.3215433 28.49538396 -11.00205147 23.35295961 -8.625 18.125 C-8.04492188 16.83529297 -8.04492188 16.83529297 -7.453125 15.51953125 C-5.08511396 10.28288939 -2.60343279 5.12365083 0 0 Z " fill="#31C595" transform="translate(436,481)"/>
<path d="M0 0 C1.25683594 0.00322266 2.51367188 0.00644531 3.80859375 0.00976562 C5.12730469 0.01814453 6.44601562 0.02652344 7.8046875 0.03515625 C9.14452961 0.04017136 10.4843735 0.04473424 11.82421875 0.04882812 C15.10941956 0.06064539 18.39453147 0.07712008 21.6796875 0.09765625 C21.91682879 6.6585652 21.13514463 10.26838525 16.6796875 15.09765625 C10.35317795 20.04883764 3.72318185 20.9050596 -4.15625 20.5703125 C-7.03084247 20.14089807 -8.81622834 19.77815899 -11.1953125 18.16015625 C-13.67042149 14.59308741 -14.13290101 12.52209481 -13.85546875 8.25390625 C-13.00367815 4.82187406 -11.06542476 3.18917035 -8.3203125 1.09765625 C-5.50207058 -0.31146471 -3.14779968 -0.01417928 0 0 Z " fill="#F6F7F8" transform="translate(740.3203125,752.90234375)"/>
<path d="M0 0 C1.88428711 0.03383789 1.88428711 0.03383789 3.80664062 0.06835938 C6.89316415 0.12703853 9.97720486 0.20909473 13.0625 0.3125 C13.2381116 9.37036146 13.2381116 9.37036146 10.0625 13.3125 C3.24007292 19.75590336 -2.77727649 20.64627513 -11.8515625 20.7109375 C-15.90557508 20.18750803 -18.71463265 18.81329174 -21.3125 15.625 C-22.29479475 11.99050942 -22.19928574 8.82028187 -20.9375 5.3125 C-14.74697507 -0.96774269 -8.42593529 -0.28719758 0 0 Z " fill="#F7F7F8" transform="translate(366.9375,752.6875)"/>
<path d="M0 0 C4.59319786 2.56678704 7.0047499 5.48663725 9 10.375 C9.75 13.3125 9.75 13.3125 9.75 17.3125 C-2.13 17.3125 -14.01 17.3125 -26.25 17.3125 C-25.25092454 10.31897175 -24.17611953 5.30742451 -18.421875 0.91796875 C-12.17811576 -2.56034595 -6.51437442 -2.9555958 0 0 Z " fill="#F2F3F4" transform="translate(537.25,861.6875)"/>
<path d="M0 0 C6.93 0 13.86 0 21 0 C21 3.63 21 7.26 21 11 C20.67 11 20.34 11 20 11 C20 8.03 20 5.06 20 2 C14.06 2 8.12 2 2 2 C2 29.06 2 56.12 2 84 C7.94 84 13.88 84 20 84 C20 69.48 20 54.96 20 40 C20.33 40 20.66 40 21 40 C21 55.18 21 70.36 21 86 C14.07 86 7.14 86 0 86 C0 57.62 0 29.24 0 0 Z " fill="#071121" transform="translate(801,704)"/>
<path d="M0 0 C0 3 0 3 -2.3125 5.375 C-3.199375 6.24125 -4.08625 7.1075 -5 8 C-5.43957031 8.763125 -5.87914062 9.52625 -6.33203125 10.3125 C-8.30848181 13.4970386 -10.72074647 16.01378842 -13.375 18.625 C-13.84421875 19.10195313 -14.3134375 19.57890625 -14.796875 20.0703125 C-17.66197786 22.91958606 -20.5282021 24.97146997 -24 27 C-25.312006 28.18511954 -26.58659486 29.41352015 -27.8125 30.6875 C-28.41707031 31.31011719 -29.02164062 31.93273437 -29.64453125 32.57421875 C-30.09183594 33.04472656 -30.53914063 33.51523437 -31 34 C-31.66 33.67 -32.32 33.34 -33 33 C-22.11 22.11 -11.22 11.22 0 0 Z " fill="#2EB28A" transform="translate(521,392)"/>
<path d="M0 0 C0.66 0.33 1.32 0.66 2 1 C1.54109375 1.51949219 1.0821875 2.03898438 0.609375 2.57421875 C-2.11180201 5.66698506 -4.79645548 8.73594225 -7.3125 12 C-7.869375 12.66 -8.42625 13.32 -9 14 C-9.66 14 -10.32 14 -11 14 C-9.18352668 8.00563806 -5.14218863 3.42812575 0 0 Z " fill="#192333" transform="translate(341,707)"/>
<path d="M0 0 C0 0.33 0 0.66 0 1 C-5.94 1 -11.88 1 -18 1 C-18 1.66 -18 2.32 -18 3 C-19.45463481 3.38909985 -20.91391207 3.76088029 -22.375 4.125 C-23.18710937 4.33382812 -23.99921875 4.54265625 -24.8359375 4.7578125 C-25.55007813 4.83773437 -26.26421875 4.91765625 -27 5 C-27.66 4.34 -28.32 3.68 -29 3 C-19.65148165 -1.03740638 -9.95624052 -0.27599435 0 0 Z " fill="#333C4A" transform="translate(374,702)"/>
<path d="M0 0 C1.51553092 3.97450493 0.49888623 7.20481149 -0.4375 11.25 C-0.72496094 12.51328125 -1.01242187 13.7765625 -1.30859375 15.078125 C-1.53675781 16.04234375 -1.76492188 17.0065625 -2 18 C-2.66 18 -3.32 18 -4 18 C-3.85786703 16.10388566 -3.71113093 14.20811606 -3.5625 12.3125 C-3.48128906 11.25675781 -3.40007813 10.20101562 -3.31640625 9.11328125 C-3.03357424 6.33035389 -2.73443805 3.69942461 -2 1 C-1.34 0.67 -0.68 0.34 0 0 Z " fill="#5CBCFE" transform="translate(556,156)"/>
<path d="M0 0 C0.33 0 0.66 0 1 0 C0.67 6.27 0.34 12.54 0 19 C-0.66 19 -1.32 19 -2 19 C-2.05411124 16.58303128 -2.09372278 14.16728213 -2.125 11.75 C-2.14175781 11.06808594 -2.15851563 10.38617187 -2.17578125 9.68359375 C-2.21213482 5.9391765 -2.07944349 3.17647273 0 0 Z " fill="#303946" transform="translate(490,874)"/>
<path d="M0 0 C-0.33 0.66 -0.66 1.32 -1 2 C-3.70599842 2.47597366 -6.33595404 2.84093629 -9.0625 3.125 C-9.82111328 3.21136719 -10.57972656 3.29773438 -11.36132812 3.38671875 C-13.23996986 3.59939517 -15.11988636 3.80075459 -17 4 C-17.33 3.34 -17.66 2.68 -18 2 C-11.84629161 0.176679 -6.40353322 -0.2361959 0 0 Z " fill="#2B3442" transform="translate(746,702)"/>
<path d="M0 0 C0.66 0.33 1.32 0.66 2 1 C0.87895467 2.31587941 -0.24696965 3.62760353 -1.375 4.9375 C-2.00148438 5.66839844 -2.62796875 6.39929688 -3.2734375 7.15234375 C-5 9 -5 9 -7 10 C-7.66 9.34 -8.32 8.68 -9 8 C-6.03 5.36 -3.06 2.72 0 0 Z " fill="#1B2534" transform="translate(879,707)"/>
<path d="M0 0 C-1.59092052 4.13639336 -4.60474918 7.23213248 -8 10 C-8.66 10 -9.32 10 -10 10 C-8.41650438 4.96160484 -5.719924 0 0 0 Z " fill="#30BC90" transform="translate(542,439)"/>
<path d="M0 0 C3.3 0.33 6.6 0.66 10 1 C10 1.33 10 1.66 10 2 C12.64 2.33 15.28 2.66 18 3 C18 3.33 18 3.66 18 4 C5.33029613 4.3690205 5.33029613 4.3690205 0 2 C0 1.34 0 0.68 0 0 Z " fill="#3C4653" transform="translate(551,788)"/>
<path d="M0 0 C1.25127906 3.54667178 0.72285053 5.72253438 -0.4375 9.25 C-0.72496094 10.14203125 -1.01242187 11.0340625 -1.30859375 11.953125 C-1.53675781 12.62859375 -1.76492188 13.3040625 -2 14 C-2.66 13.67 -3.32 13.34 -4 13 C-3.50269348 8.02693484 -2.44697666 4.36200187 0 0 Z " fill="#252F3E" transform="translate(618,722)"/>
<path d="M0 0 C0.66 0.33 1.32 0.66 2 1 C2 1.66 2 2.32 2 3 C1.38125 3.0825 0.7625 3.165 0.125 3.25 C-2.16669871 3.79326091 -2.16669871 3.79326091 -3.0625 5.9375 C-3.371875 6.618125 -3.68125 7.29875 -4 8 C-4.99 8.66 -5.98 9.32 -7 10 C-7.33 9.34 -7.66 8.68 -8 8 C-5.58443874 4.80800833 -3.31996462 2.25283313 0 0 Z " fill="#1E2837" transform="translate(450,705)"/>
<path d="M0 0 C0.99 0.33 1.98 0.66 3 1 C-0.3 3.97 -3.6 6.94 -7 10 C-7.66 9.67 -8.32 9.34 -9 9 C-6.03 6.03 -3.06 3.06 0 0 Z " fill="#0E1D27" transform="translate(482,476)"/>
<path d="M0 0 C0.66 0.66 1.32 1.32 2 2 C-0.64 4.64 -3.28 7.28 -6 10 C-6.66 9.34 -7.32 8.68 -8 8 C-5.36 5.36 -2.72 2.72 0 0 Z " fill="#2EB58B" transform="translate(463,427)"/>
<path d="M0 0 C0.66 0 1.32 0 2 0 C2 3.63 2 7.26 2 11 C1.01 11 0.02 11 -1 11 C-0.67 7.37 -0.34 3.74 0 0 Z " fill="#4DB6FE" transform="translate(230,227)"/>
<path d="M0 0 C0.99 0.33 1.98 0.66 3 1 C0.36 3.64 -2.28 6.28 -5 9 C-5.33 8.01 -5.66 7.02 -6 6 C-4.02 4.02 -2.04 2.04 0 0 Z " fill="#0A1424" transform="translate(503,851)"/>
<path d="M0 0 C0 3 0 3 -2.3125 5.5 C-3.199375 6.325 -4.08625 7.15 -5 8 C-5.598125 8.598125 -6.19625 9.19625 -6.8125 9.8125 C-7.204375 10.204375 -7.59625 10.59625 -8 11 C-8.66 10.67 -9.32 10.34 -10 10 C-6.7 6.7 -3.4 3.4 0 0 Z " fill="#2EB98E" transform="translate(496,483)"/>
<path d="M0 0 C-2.84685749 2.31966166 -5.4763875 3.91581154 -9 5 C-9.99 4.67 -10.98 4.34 -12 4 C-11.34 4 -10.68 4 -10 4 C-10 3.34 -10 2.68 -10 2 C-6.5980513 -0.09350689 -3.94727588 -0.17942163 0 0 Z " fill="#222C3A" transform="translate(485,786)"/>
<path d="M0 0 C0.99 0.495 0.99 0.495 2 1 C2 1.66 2 2.32 2 3 C2.804375 3.2475 3.60875 3.495 4.4375 3.75 C7 5 7 5 7.8125 7.125 C7.874375 7.74375 7.93625 8.3625 8 9 C4.63704165 7.55873214 2.37072898 5.79407345 0 3 C0 2.01 0 1.02 0 0 Z " fill="#1D2837" transform="translate(155,775)"/>
<path d="M0 0 C1.32 0.66 2.64 1.32 4 2 C2.9275 2.433125 1.855 2.86625 0.75 3.3125 C-2.16272646 4.55321513 -4.56036166 5.95070379 -7 8 C-6.875 6.25 -6.875 6.25 -6 4 C-2.9375 1.75 -2.9375 1.75 0 0 Z " fill="#192333" transform="translate(425,862)"/>
<path d="M0 0 C-0.99 0.66 -1.98 1.32 -3 2 C-4.23220174 2.87072072 -5.46130459 3.74584102 -6.6875 4.625 C-7.31011719 5.07101562 -7.93273437 5.51703125 -8.57421875 5.9765625 C-9.04472656 6.31429687 -9.51523438 6.65203125 -10 7 C-10 4 -10 4 -7.8125 1.8125 C-4.80799236 -0.12373826 -3.4826218 -0.39801392 0 0 Z " fill="#222C3B" transform="translate(182,721)"/>
<path d="M0 0 C0 0.66 0 1.32 0 2 C-4.62 1.34 -9.24 0.68 -14 0 C-14 -0.33 -14 -0.66 -14 -1 C-8.58264203 -1.93402724 -5.19548425 -2.20808081 0 0 Z " fill="#2B3644" transform="translate(913,722)"/>
<path d="M0 0 C0.66 0.33 1.32 0.66 2 1 C2 1.66 2 2.32 2 3 C-1.83887763 4.48320272 -4.06204091 5.22419163 -8 4 C-6.71349294 3.30289269 -5.42059335 2.61757124 -4.125 1.9375 C-3.40570313 1.55464844 -2.68640625 1.17179688 -1.9453125 0.77734375 C-1.30335938 0.52082031 -0.66140625 0.26429688 0 0 Z " fill="#2FAE87" transform="translate(464,512)"/>
<path d="M0 0 C2.45823172 3.68734758 3.01242616 6.69699971 4 11 C3.01 10.67 2.02 10.34 1 10 C-0.1577506 6.52674819 -0.06866652 3.63932552 0 0 Z " fill="#414957" transform="translate(606,883)"/>
<path d="M0 0 C0.33 0.99 0.66 1.98 1 3 C-3.29 2.34 -7.58 1.68 -12 1 C-12 0.67 -12 0.34 -12 0 C-7.6835078 -0.76173392 -4.25566547 -1.16063604 0 0 Z " fill="#2A3543" transform="translate(663,720)"/>
<path d="M0 0 C3.93673644 1.31224548 6.22719294 2.91910327 9 6 C5.51669784 5.35494404 2.90567134 4.01782732 0 2 C0 1.34 0 0.68 0 0 Z " fill="#1D2737" transform="translate(119,707)"/>
<path d="M0 0 C0.66 0.99 1.32 1.98 2 3 C0.68 5.31 -0.64 7.62 -2 10 C-2.66 10 -3.32 10 -4 10 C-2.8905928 6.51329166 -1.73662334 3.22515763 0 0 Z " fill="#122C32" transform="translate(409,504)"/>
<path d="M0 0 C0.95465783 2.16967689 1.14401212 3.56328793 0.3984375 5.82421875 C-0.35870385 7.5684743 -1.17609198 9.28627131 -2 11 C-2.66 10.67 -3.32 10.34 -4 10 C-2.8905928 6.51329166 -1.73662334 3.22515763 0 0 Z " fill="#2EB78D" transform="translate(430,494)"/>
<path d="M0 0 C0.66 0 1.32 0 2 0 C0.50902342 3.7952131 -1.75700849 5.61042731 -5 8 C-5 7.01 -5 6.02 -5 5 C-4.360625 4.731875 -3.72125 4.46375 -3.0625 4.1875 C-0.66868314 3.11332248 -0.66868314 3.11332248 0 0 Z " fill="#30BD91" transform="translate(537,352)"/>
<path d="M0 0 C0.66 0 1.32 0 2 0 C1.6875 3.375 1.6875 3.375 1 7 C0.01 7.66 -0.98 8.32 -2 9 C-1.34 6.03 -0.68 3.06 0 0 Z " fill="#28303E" transform="translate(453,894)"/>
<path d="M0 0 C0 0.33 0 0.66 0 1 C-1.98 1 -3.96 1 -6 1 C-6 1.66 -6 2.32 -6 3 C-8.31 2.67 -10.62 2.34 -13 2 C-13 1.67 -13 1.34 -13 1 C-8.59085217 -0.10228696 -4.51617599 -0.07654536 0 0 Z " fill="#505864" transform="translate(358,738)"/>
<path d="M0 0 C0.66 0.99 1.32 1.98 2 3 C1.01 4.98 0.02 6.96 -1 9 C-1.66 9 -2.32 9 -3 9 C-2.01 6.03 -1.02 3.06 0 0 Z " fill="#0F222A" transform="translate(419,482)"/>
<path d="M0 0 C0.66 0 1.32 0 2 0 C1.75 2.375 1.75 2.375 1 5 C-1.0625 6.3125 -1.0625 6.3125 -3 7 C-1.125 1.125 -1.125 1.125 0 0 Z " fill="#2EB28A" transform="translate(436,481)"/>
<path d="M0 0 C0.66 0.33 1.32 0.66 2 1 C0.35 2.98 -1.3 4.96 -3 7 C-3.66 6.34 -4.32 5.68 -5 5 C-3.35 3.35 -1.7 1.7 0 0 Z " fill="#242D3D" transform="translate(561,917)"/>
<path d="M0 0 C0.91058531 3.07322544 1.08886184 5.80097361 1 9 C0.01 9 -0.98 9 -2 9 C-1.125 2.25 -1.125 2.25 0 0 Z " fill="#1D2534" transform="translate(711,719)"/>
<path d="M0 0 C0.33 0 0.66 0 1 0 C2.12029814 5.48946087 1.79217969 8.83430559 0 14 C-0.33 14 -0.66 14 -1 14 C-1.08333357 9.1666528 -0.95261487 4.76307437 0 0 Z " fill="#67D1B2" transform="translate(306,520)"/>
<path d="M0 0 C1 3 1 3 -0.3125 5.6875 C-0.869375 6.450625 -1.42625 7.21375 -2 8 C-2.66 8 -3.32 8 -4 8 C-2.25 2.25 -2.25 2.25 0 0 Z " fill="#0F212A" transform="translate(429,465)"/>
<path d="M0 0 C-1.39332574 3.36720387 -2.9789286 4.9859524 -6 7 C-5.37162381 3.35541809 -4.14650034 0 0 0 Z " fill="#0D1B26" transform="translate(468,444)"/>
<path d="M0 0 C0.66 0.33 1.32 0.66 2 1 C0.35 2.98 -1.3 4.96 -3 7 C-3.66 6.34 -4.32 5.68 -5 5 C-3.35 3.35 -1.7 1.7 0 0 Z " fill="#0E1E27" transform="translate(533,443)"/>
<path d="M0 0 C0.33 0 0.66 0 1 0 C2.0257259 4.41062136 2.03684712 6.92630576 0 11 C-0.66 11 -1.32 11 -2 11 C-1.34 7.37 -0.68 3.74 0 0 Z " fill="#2EB88E" transform="translate(599,369)"/>
</svg>
